<svg id="Слой_1" data-name="Слой 1" xmlns="http://www.w3.org/2000/svg" xmlns:xlink="http://www.w3.org/1999/xlink" viewBox="0 0 1366 316.97"><defs><style>.cls-1{fill:#200438;}.cls-2{fill:url(#Degradado_sin_nombre_818);}.cls-3{fill:url(#Degradado_sin_nombre_818-2);}.cls-4{fill:url(#Degradado_sin_nombre_818-3);}.cls-5{fill:url(#Degradado_sin_nombre_818-4);}.cls-6{fill:url(#Degradado_sin_nombre_818-5);}.cls-7{fill:url(#Degradado_sin_nombre_818-6);}.cls-8{fill:url(#Degradado_sin_nombre_818-7);}.cls-9{fill:url(#Degradado_sin_nombre_818-8);}.cls-10{fill:url(#Degradado_sin_nombre_818-9);}.cls-11{fill:url(#Degradado_sin_nombre_818-10);}.cls-12{fill:url(#Degradado_sin_nombre_818-11);}.cls-13{fill:url(#Degradado_sin_nombre_818-12);}</style><linearGradient id="Degradado_sin_nombre_818" x1="2446.29" y1="183.54" x2="2712.72" y2="183.54" gradientTransform="matrix(-1, 0, 0, 1, 3812.29, 0)" gradientUnits="userSpaceOnUse"><stop offset="0" stop-color="#330652"/><stop offset="1" stop-color="#8d10c3"/></linearGradient><linearGradient id="Degradado_sin_nombre_818-2" x1="2708.34" y1="183.54" x2="2723.4" y2="183.54" gradientTransform="matrix(-0.93, -0.37, -0.37, 0.93, 3685.32, 1024.51)" xlink:href="#Degradado_sin_nombre_818"/><linearGradient id="Degradado_sin_nombre_818-3" x1="2446.29" y1="146.49" x2="2869.21" y2="146.49" xlink:href="#Degradado_sin_nombre_818"/><linearGradient id="Degradado_sin_nombre_818-4" x1="2865.68" y1="165.14" x2="2880.74" y2="165.14" xlink:href="#Degradado_sin_nombre_818"/><linearGradient id="Degradado_sin_nombre_818-5" x1="2446.29" y1="214.8" x2="2776.41" y2="214.8" xlink:href="#Degradado_sin_nombre_818"/><linearGradient id="Degradado_sin_nombre_818-6" x1="2774.97" y1="201.34" x2="2792.91" y2="201.34" xlink:href="#Degradado_sin_nombre_818"/><linearGradient id="Degradado_sin_nombre_818-7" x1="3361.17" y1="-44.68" x2="3627.6" y2="-44.68" gradientTransform="matrix(1, 0, 0, -1, -3361.17, 101.84)" xlink:href="#Degradado_sin_nombre_818"/><linearGradient id="Degradado_sin_nombre_818-8" x1="3623.21" y1="-44.68" x2="3638.27" y2="-44.68" gradientTransform="matrix(0.93, 0.37, 0.37, -0.93, -3083.42, -1246.94)" xlink:href="#Degradado_sin_nombre_818"/><linearGradient id="Degradado_sin_nombre_818-9" x1="3361.17" y1="-81.73" x2="3784.09" y2="-81.73" gradientTransform="matrix(1, 0, 0, -1, -3361.17, 101.84)" xlink:href="#Degradado_sin_nombre_818"/><linearGradient id="Degradado_sin_nombre_818-10" x1="3780.55" y1="-63.08" x2="3795.61" y2="-63.08" gradientTransform="matrix(1, 0, 0, -1, -3361.17, 101.84)" xlink:href="#Degradado_sin_nombre_818"/><linearGradient id="Degradado_sin_nombre_818-11" x1="3361.17" y1="-13.42" x2="3691.28" y2="-13.42" gradientTransform="matrix(1, 0, 0, -1, -3361.17, 101.84)" xlink:href="#Degradado_sin_nombre_818"/><linearGradient id="Degradado_sin_nombre_818-12" x1="3689.84" y1="-26.88" x2="3707.79" y2="-26.88" gradientTransform="matrix(1, 0, 0, -1, -3361.17, 101.84)" xlink:href="#Degradado_sin_nombre_818"/></defs><title>Аналитик_лендинг_согл</title><rect class="cls-1" width="1366" height="316.97"/><rect class="cls-2" x="1099.57" y="182.1" width="266.43" height="2.89"/><circle class="cls-3" cx="1096.43" cy="183.54" r="7.53" transform="translate(10.51 421.48) rotate(-21.86)"/><polygon class="cls-4" points="943.08 166.58 1148.26 166.58 1195.59 129.29 1366 129.29 1366 126.4 1194.8 126.4 1147.47 163.69 943.08 163.69 943.08 166.58"/><path class="cls-5" d="M941.91,158.16a7.53,7.53,0,1,0,4.15,9.81A7.52,7.52,0,0,0,941.91,158.16Z"/><polygon class="cls-6" points="1173.11 229.71 1366 229.71 1366 226.82 1173.83 226.82 1138.42 199.9 1035.89 199.9 1035.89 202.78 1137.7 202.78 1173.11 229.71"/><path class="cls-7" d="M1025,209.66h0A9,9,0,0,1,1020,198a9,9,0,1,1,11.81,11.64,9,9,0,0,1-6.87,0Zm1-13.92a6.09,6.09,0,0,0,4.75,11.21,6.09,6.09,0,0,0-2.38-11.7A6.17,6.17,0,0,0,1026,195.74Z"/><rect class="cls-8" y="145.07" width="266.43" height="2.89"/><circle class="cls-9" cx="269.57" cy="146.51" r="7.53" transform="translate(-35.17 110.92) rotate(-21.86)"/><polygon class="cls-10" points="422.92 163.47 217.74 163.47 170.41 200.77 0 200.77 0 203.66 171.2 203.66 218.53 166.36 422.92 166.36 422.92 163.47"/><path class="cls-11" d="M424.09,171.89a7.53,7.53,0,1,0-4.15-9.8A7.52,7.52,0,0,0,424.09,171.89Z"/><polygon class="cls-12" points="192.89 100.35 0 100.35 0 103.24 192.17 103.24 227.58 130.16 330.11 130.16 330.11 127.27 228.29 127.27 192.89 100.35"/><path class="cls-13" d="M341,120.4h0a9,9,0,1,1-6.87,0,8.84,8.84,0,0,1,6.87,0Zm-1,13.92a6.09,6.09,0,0,0-.09-11.25,6.09,6.09,0,0,0-7.92,3.35,6.09,6.09,0,0,0,5.64,8.38A6.16,6.16,0,0,0,340,134.32Z"/></svg>