<?xml version="1.0" encoding="utf-8"?>
<!-- Generator: Adobe Illustrator 24.0.1, SVG Export Plug-In . SVG Version: 6.00 Build 0)  -->
<svg version="1.1" id="Слой_1" xmlns="http://www.w3.org/2000/svg" xmlns:xlink="http://www.w3.org/1999/xlink" x="0px" y="0px"
	 viewBox="0 0 1366 901.6" style="enable-background:new 0 0 1366 901.6;" xml:space="preserve">
<style type="text/css">
	.st0{fill:#FFFFFF;}
	.st1{fill:#F4F7FA;}
	.st2{fill:#D8DEE8;}
	.st3{fill:url(#SVGID_1_);}
	.st4{fill:url(#SVGID_2_);}
	.st5{fill:url(#SVGID_3_);}
	.st6{fill:url(#SVGID_4_);}
	.st7{fill:url(#SVGID_5_);}
	.st8{fill:url(#SVGID_6_);}
	.st9{fill:url(#SVGID_7_);}
	.st10{opacity:0.6;fill:#FFFFFF;enable-background:new    ;}
	.st11{opacity:0.29;fill:url(#SVGID_8_);enable-background:new    ;}
	.st12{opacity:0.29;fill:url(#SVGID_9_);enable-background:new    ;}
	.st13{fill:url(#SVGID_10_);}
	.st14{fill:url(#SVGID_11_);}
	.st15{fill:url(#SVGID_12_);}
	.st16{fill:url(#SVGID_13_);}
	.st17{fill:url(#SVGID_14_);}
	.st18{fill:url(#SVGID_15_);}
	.st19{fill:url(#SVGID_16_);}
	.st20{opacity:5.000000e-02;}
	.st21{fill:url(#SVGID_17_);}
	.st22{opacity:0.5;}
	.st23{fill:#670C93;}
	.st24{fill:#26264F;}
	.st25{fill:url(#SVGID_18_);}
	.st26{fill:url(#SVGID_19_);}
	.st27{fill:url(#SVGID_20_);}
	.st28{fill:url(#SVGID_21_);}
	.st29{fill:url(#SVGID_22_);}
	.st30{opacity:0.3;fill:url(#SVGID_23_);enable-background:new    ;}
	.st31{fill:url(#SVGID_24_);}
</style>
<title>Аналитик_лендинг_согл</title>
<rect y="0" class="st0" width="1366" height="901.6"/>
<path class="st1" d="M1277.8,449.1c9.2,51.6,27.9,156.3-16.8,226.3c-81,127.1-356.8,118.1-473.3-42.1c-10.1-13.8-60.6-86.1-55.1-185
	c9.6-171.6,182.1-323.7,320.4-293.8c80.9,17.5,134.7,93.9,156.9,125.4C1219.1,292.9,1260.9,354.1,1277.8,449.1z"/>
<path class="st2" d="M873.8,197.9c-5.2-0.4-10.5-0.4-15.7,0c-0.1-0.5-0.2-1-0.3-1.5c-2.8-9.8-13-15.6-22.8-13
	c-9.7,2.6-15.4,12.5-12.9,22.2c0,0.1,0.1,0.2,0.1,0.3c0.2,0.5,0.3,1,0.5,1.5c-4.7,2.2-9.2,4.9-13.5,7.8c-0.3-0.4-0.7-0.8-1.1-1.2
	c-7.2-7.2-18.9-7.2-26.2,0c-7.1,7.2-7,18.8,0.3,25.9c0,0,0.1,0.1,0.1,0.1c0.4,0.4,0.8,0.7,1.2,1c-2.9,4.3-5.5,8.8-7.6,13.5
	c-0.5-0.2-1-0.3-1.5-0.5c-9.7-2.7-19.8,3.1-22.4,12.8c0,0.1,0,0.1-0.1,0.2c-2.4,9.9,3.5,19.9,13.4,22.5c0.5,0.1,1,0.2,1.5,0.3
	c-0.3,5.2-0.3,10.4,0.2,15.6c-0.5,0.1-1,0.2-1.5,0.3c-9.7,2.6-15.4,12.5-12.9,22.1c0,0.1,0.1,0.3,0.1,0.4c2.8,9.8,13,15.6,22.8,13
	c0.5-0.1,1-0.3,1.5-0.5c2.3,4.7,5,9.2,8,13.5c-0.4,0.3-0.8,0.7-1.2,1c-7.1,7.2-6.9,18.8,0.3,25.9c0,0,0.1,0.1,0.1,0.1
	c7.2,7.2,18.9,7.2,26.2,0c0.4-0.4,0.7-0.8,1-1.1c4.4,2.9,8.9,5.5,13.7,7.8c-0.2,0.5-0.3,1-0.5,1.5c-2.4,9.9,3.5,19.9,13.4,22.5
	c9.7,2.7,19.8-3.1,22.4-12.8c0-0.1,0-0.1,0.1-0.2c0.1-0.5,0.2-1,0.3-1.5c5.2,0.4,10.5,0.4,15.7,0c0.1,0.5,0.2,1,0.3,1.5
	c2.8,9.8,13,15.6,22.8,13c9.7-2.6,15.4-12.5,12.9-22.2c0-0.1-0.1-0.2-0.1-0.3c-0.2-0.5-0.3-1-0.5-1.5c4.7-2.2,9.2-4.9,13.5-7.8
	c0.3,0.4,0.7,0.8,1.1,1.2c7.2,7.2,18.9,7.2,26.2,0c7.1-7.2,6.9-18.8-0.3-25.9c0,0-0.1-0.1-0.1-0.1c-0.4-0.4-0.8-0.7-1.2-1
	c2.9-4.3,5.5-8.8,7.6-13.5c0.5,0.2,1,0.3,1.5,0.5c9.7,2.7,19.8-3.1,22.4-12.8c0-0.1,0-0.1,0.1-0.2c2.4-9.9-3.5-19.9-13.4-22.5
	c-0.5-0.1-1-0.2-1.5-0.3c0.3-5.2,0.3-10.4-0.2-15.6c0.5-0.1,1-0.2,1.5-0.3c9.7-2.5,15.5-12.4,13-22.1c0-0.1-0.1-0.3-0.1-0.4
	c-2.8-9.8-13-15.6-22.8-13c-0.5,0.1-1,0.3-1.5,0.5c-2.3-4.7-5-9.2-8-13.5c0.4-0.3,0.8-0.7,1.2-1.1c7.1-7.2,6.9-18.8-0.3-25.9
	c0,0-0.1-0.1-0.1-0.1c-7.2-7.2-18.9-7.2-26.2,0c-0.4,0.4-0.7,0.8-1,1.1c-4.4-2.9-8.9-5.5-13.7-7.8c0.2-0.5,0.3-1,0.5-1.5
	c2.5-9.9-3.5-19.9-13.4-22.5c-9.7-2.7-19.8,3.1-22.4,12.8c0,0.1,0,0.1-0.1,0.2C873.9,196.9,873.8,197.4,873.8,197.9z M883.8,233.2
	c36,9.5,57.8,46.1,48.7,81.7s-45.6,56.8-81.6,47.3s-57.8-46.1-48.7-81.7S847.8,223.7,883.8,233.2L883.8,233.2z"/>
<linearGradient id="SVGID_1_" gradientUnits="userSpaceOnUse" x1="-487.8795" y1="262.9113" x2="-487.4094" y2="232.0514" gradientTransform="matrix(-1 0 0 -1 471.5 901.2912)">
	<stop  offset="0" style="stop-color:#444B8C"/>
	<stop  offset="1" style="stop-color:#26264F"/>
</linearGradient>
<path class="st3" d="M1209.7,686.1l-313.2-21.6c-0.4,0-0.8,0-1.1,0l-186.5,8.5c-4.5,0.4-4.3,12.1,0.8,12.7l293.1,39.2
	c1.2,0.2,2.4,0.2,3.6,0l202.8-28.5C1211.9,695.9,1212.8,686.3,1209.7,686.1z"/>
<linearGradient id="SVGID_2_" gradientUnits="userSpaceOnUse" x1="-493.3036" y1="201.6924" x2="-444.0236" y2="350.9024" gradientTransform="matrix(-1 0 0 -1 471.5 901.2912)">
	<stop  offset="0" style="stop-color:#444B8C"/>
	<stop  offset="1" style="stop-color:#26264F"/>
</linearGradient>
<path class="st4" d="M1209.1,685.7l-312.6-29.5c-0.4,0-0.8,0-1.1,0l-185.6,16.3c-1.6,0.1-2.7,1.5-2.6,3.1c0.1,1.3,1.2,2.4,2.5,2.6
	l293.1,36.2c1.2,0.2,2.4,0.2,3.6,0l202.8-26.2c0.7,0,1.2-0.6,1.2-1.2C1210.3,686.3,1209.8,685.7,1209.1,685.7z"/>
<linearGradient id="SVGID_3_" gradientUnits="userSpaceOnUse" x1="-711.7683" y1="215.9434" x2="-253.6929" y2="215.9434" gradientTransform="matrix(-1 0 0 -1 471.5 901.2912)">
	<stop  offset="0" style="stop-color:#9571F6"/>
	<stop  offset="1" style="stop-color:#FB6FBB"/>
</linearGradient>
<path class="st5" d="M999.7,710.8c0.4,0,0.9,0,1.3-0.1l181.8-23.5c0.3,0,0.6-0.3,0.6-0.6c0-0.3-0.3-0.6-0.6-0.6l-279.1-26.3h-0.3
	l-177.4,15.6c-0.4,0-0.6,0.4-0.6,0.8c0,0.3,0.3,0.6,0.6,0.6l272.6,34C998.8,710.8,999.2,710.8,999.7,710.8z"/>
<linearGradient id="SVGID_4_" gradientUnits="userSpaceOnUse" x1="378.3234" y1="450.2494" x2="385.7734" y2="450.2494" gradientTransform="matrix(-0.99 0.12 -0.12 -0.99 1543.155 1098.4783)">
	<stop  offset="0" style="stop-color:#FF9085"/>
	<stop  offset="1" style="stop-color:#FB6FBB"/>
</linearGradient>
<path class="st6" d="M1103.1,699.5c0.1,0.5,1.8,0.8,3.8,0.5s3.7-0.9,3.6-1.4s-1.8-0.8-3.8-0.5S1103,699,1103.1,699.5z"/>
<linearGradient id="SVGID_5_" gradientUnits="userSpaceOnUse" x1="-498.173" y1="187.1112" x2="-497.663" y2="174.0312" gradientTransform="matrix(-1 0 0 -1 471.5 901.2912)">
	<stop  offset="0" style="stop-color:#444B8C"/>
	<stop  offset="1" style="stop-color:#26264F"/>
</linearGradient>
<path class="st7" d="M955.3,716.3l28.1,3.7c2.1,0.3,3.7-0.7,3.7-2.3l0,0c0-1.5-1.7-2.9-3.7-3.2l-28.1-3.3c-1.7-0.2-3.1,0.8-3.1,2.1
	l0,0C952.1,714.7,953.5,716,955.3,716.3z"/>
<linearGradient id="SVGID_6_" gradientUnits="userSpaceOnUse" x1="-464.7477" y1="188.4122" x2="-464.2377" y2="175.3322" gradientTransform="matrix(-1 0 0 -1 471.5 901.2912)">
	<stop  offset="0" style="stop-color:#444B8C"/>
	<stop  offset="1" style="stop-color:#26264F"/>
</linearGradient>
<path class="st8" d="M924.5,712.2l23.2,3c1.7,0.2,3-0.7,3-2.1l0,0c-0.2-1.5-1.5-2.7-3-2.8l-23.2-2.7c-1.2-0.3-2.3,0.5-2.6,1.6
	c0,0.1,0,0.2,0,0.4l0,0C922,711,923.1,712.1,924.5,712.2z"/>
<linearGradient id="SVGID_7_" gradientUnits="userSpaceOnUse" x1="-422.9579" y1="190.0314" x2="-422.4479" y2="176.9514" gradientTransform="matrix(-1 0 0 -1 471.5 901.2912)">
	<stop  offset="0" style="stop-color:#444B8C"/>
	<stop  offset="1" style="stop-color:#26264F"/>
</linearGradient>
<path class="st9" d="M885.7,707.1l17.6,2.3c1,0.2,2-0.4,2.3-1.5c0-0.1,0-0.2,0-0.4l0,0c-0.1-1.3-1-2.3-2.3-2.4l-17.6-2.1
	c-1-0.1-1.8,0.5-2,1.5c0,0.1,0,0.2,0,0.3l0,0C883.7,706,884.6,707,885.7,707.1z"/>
<path class="st10" d="M853.1,674.4c27.2,4.8,45.3,14.7,84.4,15.5c33.9,0.7,34.1-7.1,73.5-9.6c51.6-3.2,65,9.3,117.7,8.2
	c17.8-0.4,35.5-2.2,53-5.4l27.4,2.6c0.7,0.1,1.2,0.6,1.1,1.3c-0.1,0.6-0.5,1-1.1,1.1l-202.8,26.2c-1.2,0.2-2.4,0.2-3.6,0l-248-30.6
	C797.3,669.6,829.8,670.3,853.1,674.4z"/>
<path class="st0" d="M917.6,688.5c-17.8,0-35.9-3.2-35.9-9.2s18-9.2,35.9-9.2s35.9,3.2,35.9,9.2S935.5,688.5,917.6,688.5z
	 M917.6,672.4c-23.9,0-33.6,4.9-33.6,6.9s9.7,6.9,33.6,6.9s33.6-4.9,33.6-6.9S941.6,672.4,917.6,672.4L917.6,672.4z"/>
<ellipse class="st10" cx="917.6" cy="679.3" rx="15.8" ry="3.7"/>
<linearGradient id="SVGID_8_" gradientUnits="userSpaceOnUse" x1="720.31" y1="412.0255" x2="1140.5" y2="412.0255" gradientTransform="matrix(1 0 0 -1 0 901.2912)">
	<stop  offset="0" style="stop-color:#E38DDD"/>
	<stop  offset="1" style="stop-color:#9571F6"/>
</linearGradient>
<path class="st11" d="M1140.5,356.2L953.7,661.6l-1.7,2.8l-2.3,3.7l-4,6.5l-2.9,4.7c0,3.1-10.6,5.7-24,5.8h-1.3
	c-14,0-25.3-2.6-25.3-5.9l-2.7-4.8l-5.3-9.6l-1.8-3.3l-2.3-4.1l-11.1-20.2L850,602.6l-21.6-39.1l-2.2-3.9l-23.8-43.3l-15.2-27.5
	l-67-121.7c31.6-24.1,66.9-42.8,104.6-55.4c7.8-2.6,16-5.1,24.6-7.3c2-0.5,4-1,6-1.5c1.5-0.4,3-0.7,4.6-1.1c1.2-0.3,2.4-0.5,3.7-0.8
	l0,0c19.4-4.2,39.2-6.7,59-7.5c2.5-0.1,5.1-0.2,7.7-0.3c35.9-0.8,71.8,4,106.3,14c1,0.3,2,0.6,3,0.9l0.9,0.3c3.2,1,6.4,2,9.5,3
	c8.5,2.8,16.5,5.8,24,8.9C1097.5,330,1119.7,342,1140.5,356.2z"/>
<path class="st0" d="M992.3,523.5c-1.4,3.3-3,6.5-4.9,9.6L992.3,523.5L992.3,523.5z"/>
<path class="st0" d="M997.2,499c0,8.4-1.7,16.7-4.9,24.5l0,0l-4.9,9.6l0,0l-35.5,70l-1.4,2.7l-0.1,0.1l0,0
	c-11.4,21.1-33.3,35.5-58.5,35.5c-7.7,0-15.4-1.3-22.7-4l-19.1-34.7l-21.6-39.1c-0.9-0.5-2.3-3.1-2.2-3.9l0,0l-23.8-43.3l-15.2-27.5
	c6.4-39.5,50-70.1,103.1-70.6c0.5,0,0.9,0,1.4,0c2.6,0,5.2,0.1,7.8,0.2c13.8,0.7,27.4,3.6,40.2,8.6c2.8,1.1,5.6,2.3,8.3,3.6l0.6,0.3
	l0,0c2.6,1.3,5.1,2.6,7.5,4.1l0,0C981.2,449.9,997.2,473,997.2,499z"/>
<linearGradient id="SVGID_9_" gradientUnits="userSpaceOnUse" x1="892.7518" y1="467.6397" x2="940.0215" y2="467.6397" gradientTransform="matrix(1 0 0 -1 2.347351e-04 901.2875)">
	<stop  offset="0" style="stop-color:#E38DDD"/>
	<stop  offset="1" style="stop-color:#9571F6"/>
</linearGradient>
<path class="st12" d="M896.9,422.4c7.4-12.8,22.1-18.2,32.9-12s13.5,21.6,6,34.5s-22.1,18.2-32.9,12S889.5,435.2,896.9,422.4z"/>
<ellipse transform="matrix(0.9952 -9.775660e-02 9.775660e-02 0.9952 -30.287 94.4292)" class="st0" cx="948.5" cy="356.3" rx="105.3" ry="80.8"/>
<linearGradient id="SVGID_10_" gradientUnits="userSpaceOnUse" x1="291.6021" y1="441.9414" x2="449.6421" y2="485.9414" gradientTransform="matrix(1 -0.1 -0.1 -1 630.6891 864.2912)">
	<stop  offset="0" style="stop-color:#FFC444"/>
	<stop  offset="1" style="stop-color:#F36F56"/>
</linearGradient>
<path class="st13" d="M1030.7,337l2,20.1c1.9,19-12,36-31.1,37.9c0,0,0,0,0,0l-12.9,1.3c-4.9,11.1-15.5,18.7-27.5,19.8l-13.4,1.3
	c-12.1,1.2-23.9-4.2-30.9-14.1l-9.6,0.9c-19,1.9-36-12-37.8-31.1l-2-20.1c-0.8-8.6,5.4-16.2,14-17.1l132.1-13
	c8.6-0.9,16.3,5.4,17.1,13.9C1030.7,336.9,1030.7,337,1030.7,337z"/>
<linearGradient id="SVGID_11_" gradientUnits="userSpaceOnUse" x1="301.4627" y1="456.2515" x2="451.6327" y2="456.2515" gradientTransform="matrix(0.9952 -9.775660e-02 -9.775660e-02 -0.9952 619.7939 850.1693)">
	<stop  offset="0" style="stop-color:#444B8C"/>
	<stop  offset="1" style="stop-color:#26264F"/>
</linearGradient>
<path class="st14" d="M889.8,340.5l115.6-11.4c9.4-0.9,17.7,6,18.6,15.3l0.5,5.3c1.4,14.7-9.3,27.9-24.1,29.3l-96,9.4
	c-14.8,1.5-27.9-9.3-29.4-24.1l-0.5-5.3C873.6,349.7,880.4,341.4,889.8,340.5L889.8,340.5L889.8,340.5z"/>
<path class="st0" d="M929.3,364.3c0.8-1.4,1.2-3.1,1.1-4.7c-0.5-5.4-6.6-9.1-13.6-8.5s-12.3,5.6-11.8,11c0.2,1.6,0.9,3.2,2,4.4
	L929.3,364.3z"/>
<path class="st0" d="M993.2,358c0.8-1.4,1.2-3.1,1.1-4.7c-0.5-5.4-6.6-9.1-13.6-8.5s-12.3,5.6-11.7,10.9c0.2,1.6,0.9,3.2,2,4.4
	L993.2,358z"/>
<linearGradient id="SVGID_12_" gradientUnits="userSpaceOnUse" x1="371.663" y1="441.8596" x2="481.0331" y2="441.8596" gradientTransform="matrix(1 -0.1 -0.1 -1 630.6891 864.2912)">
	<stop  offset="0" style="stop-color:#444B8C"/>
	<stop  offset="1" style="stop-color:#26264F"/>
</linearGradient>
<path class="st15" d="M959.2,435.4l-0.6-6.3c53.3-5,93.9-49.9,93.4-103.4h6.3C1058.6,382.3,1015.6,429.9,959.2,435.4z"/>
<linearGradient id="SVGID_13_" gradientUnits="userSpaceOnUse" x1="258.7231" y1="526.6665" x2="480.173" y2="526.6665" gradientTransform="matrix(1 -0.1 -0.1 -1 630.6891 864.2912)">
	<stop  offset="0" style="stop-color:#444B8C"/>
	<stop  offset="1" style="stop-color:#26264F"/>
</linearGradient>
<path class="st16" d="M847.1,361.3l-8.1,0.8c-0.6-3.4-1.1-6.9-1.5-10.2l1.8-0.2c5.1-61,58.6-106.3,119.6-101.2
	c45.9,3.8,84.7,35.6,97.3,79.9l1.8-0.2c0.3,3.3,0.5,6.8,0.6,10.3l-8.1,0.8c-10.8-55.6-64.6-92-120.2-81.2
	C881.8,269.5,846.9,312,847.1,361.3L847.1,361.3z"/>
<linearGradient id="SVGID_14_" gradientUnits="userSpaceOnUse" x1="252.7627" y1="471.1165" x2="287.0927" y2="471.1165" gradientTransform="matrix(0.9952 -9.775660e-02 -9.775660e-02 -0.9952 619.7939 850.171)">
	<stop  offset="0" style="stop-color:#444B8C"/>
	<stop  offset="1" style="stop-color:#26264F"/>
</linearGradient>
<path class="st17" d="M826.2,314.2l24.1-2.4c2.8-0.3,5.2,1.8,5.5,4.5l7.2,73.7c0.3,2.8-1.8,5.2-4.5,5.5l-24.1,2.4
	c-2.8,0.3-5.2-1.8-5.5-4.5l-7.2-73.7C821.4,317,823.4,314.5,826.2,314.2z"/>
<linearGradient id="SVGID_15_" gradientUnits="userSpaceOnUse" x1="374.0779" y1="386.475" x2="423.6032" y2="386.475" gradientTransform="matrix(0.9952 -9.758291e-02 -9.758291e-02 -0.9952 619.2444 850.4031)">
	<stop  offset="0" style="stop-color:#444B8C"/>
	<stop  offset="1" style="stop-color:#26264F"/>
</linearGradient>
<path class="st18" d="M955.6,422.5l40.9-10.2c1.5-0.4,3.1,0.6,3.5,2.1l3.3,13.4c0.4,1.5-0.6,3.1-2.1,3.5l-40.9,10.2
	c-1.5,0.4-3.1-0.6-3.5-2.1l-3.3-13.4C953.1,424.4,954.1,422.9,955.6,422.5z"/>
<linearGradient id="SVGID_16_" gradientUnits="userSpaceOnUse" x1="467.9027" y1="471.1165" x2="502.2327" y2="471.1165" gradientTransform="matrix(0.9952 -9.775660e-02 -9.775660e-02 -0.9952 619.795 850.1723)">
	<stop  offset="0" style="stop-color:#444B8C"/>
	<stop  offset="1" style="stop-color:#26264F"/>
</linearGradient>
<path class="st19" d="M1040.3,293.2l24.1-2.4c2.8-0.3,5.2,1.8,5.5,4.5l7.2,73.7c0.3,2.8-1.8,5.2-4.5,5.5l-24.1,2.4
	c-2.8,0.3-5.2-1.8-5.5-4.5l-7.2-73.7C1035.5,295.9,1037.5,293.5,1040.3,293.2z"/>
<g class="st20">
	<path class="st2" d="M1012.6,369.6c-36.9,1.2-78.3-10.8-91.6-47.4c-5-14.7-2.8-30.1,4-43.8c-49.9,10.8-85.3,47.9-81.4,88.3
		c4.3,44.4,54.8,75.8,112.7,70.1c42.1-4.1,76.5-26.7,90.5-55.8c-6.5,0.3-13-0.9-19-3.3C1022.8,375.8,1018.2,369.8,1012.6,369.6z"/>
</g>
<path class="st2" d="M954.2,530.2l-35.1-2.1c-3.6-0.1-6.4-3-6.3-6.6c0-0.3,0-0.5,0.1-0.8l1.7-11.5c0.7-3.9,4.3-6.7,8.3-6.5l35.1,2.1
	c3.6,0.1,6.4,3,6.3,6.6c0,0.3,0,0.5-0.1,0.8l-1.7,11.5C961.7,527.7,958.2,530.5,954.2,530.2z"/>
<linearGradient id="SVGID_17_" gradientUnits="userSpaceOnUse" x1="1200.8571" y1="741.832" x2="1167.9871" y2="596.272" gradientTransform="matrix(1 0 0 -1 0 901.2912)">
	<stop  offset="0" style="stop-color:#330652"/>
	<stop  offset="0.91" style="stop-color:#BD66CB"/>
	<stop  offset="1" style="stop-color:#CB70D7"/>
</linearGradient>
<path class="st21" d="M1091.5,292.8c-9.5-11.9-15-25.9-15-40.9c0-43.5,46.3-78.8,103.5-78.8s103.5,35.3,103.5,78.8
	s-46.3,78.8-103.5,78.8c-21.4,0-41.3-5-57.8-13.4c-10.9,1.9-27.9,5-36.8,6.6c-1.9,0.4-3.7-0.9-4-2.7c-0.1-0.6-0.1-1.3,0.2-1.9
	L1091.5,292.8z"/>
<g class="st22">
	<path class="st23" d="M1123.3,268.6c23.2-9.8,48.7,10.8,64.7-3.5c16-14.4-1.3-43.1,14.1-63.5c7.3-9.7,19.7-14.3,33.8-15.9
		c28.6,14,47.5,38.5,47.5,66.3c0,43.5-46.3,78.8-103.5,78.8c-21.4,0-41.3-5-57.8-13.4c-8.6,1.5-21,3.7-30.2,5.4
		C1098.8,287.4,1111.3,273.7,1123.3,268.6z"/>
</g>
<path class="st24" d="M1048,640.6l-36.9-86.4c-1.6-3.9,0.2-8.3,4-10c0.4-0.2,0.8-0.3,1.2-0.4l67.6-16.4c3.7-0.9,7.4,1,8.8,4.5
	l33.9,83c1.6,3.9-0.3,8.3-4.2,9.9c-0.2,0.1-0.4,0.2-0.6,0.2l-64.6,19.8C1053.5,646,1049.5,644.2,1048,640.6z"/>
<linearGradient id="SVGID_18_" gradientUnits="userSpaceOnUse" x1="1037.6664" y1="377.1694" x2="1079.2563" y2="299.3293" gradientTransform="matrix(1 0 0 -1 0 901.2912)">
	<stop  offset="0.19" style="stop-color:#9571F6"/>
	<stop  offset="1" style="stop-color:#FB6FBB"/>
</linearGradient>
<path class="st25" d="M1049.7,636.5l-34.5-80.7c-1.5-3.6,0.1-7.8,3.7-9.3c0.4-0.2,0.7-0.3,1.1-0.4l63.1-15.3c3.4-0.8,6.9,1,8.2,4.2
	l31.7,77.6c1.5,3.6-0.3,7.8-3.9,9.3c-0.2,0.1-0.4,0.2-0.6,0.2l-60.3,18.5C1054.8,641.5,1051.1,639.8,1049.7,636.5z"/>
<linearGradient id="SVGID_19_" gradientUnits="userSpaceOnUse" x1="1029.4746" y1="319.6403" x2="1019.2946" y2="273.1603" gradientTransform="matrix(1 0 0 -1 0 901.2912)">
	<stop  offset="0" style="stop-color:#FFC444"/>
	<stop  offset="1" style="stop-color:#F36F56"/>
</linearGradient>
<path class="st26" d="M1028.4,612.8l-1.1-10.2l-5.9-11.2c-0.8-1.5-1.2-3.2-1.2-4.9v-11.1l7.1,16.4c0,0,4.7-4.2,6.4-5.1
	s1.6,2.7,0.2,4s0.7,12.2-0.7,13.3l0.4,6.6L1028.4,612.8z"/>
<linearGradient id="SVGID_20_" gradientUnits="userSpaceOnUse" x1="1121.4752" y1="323.6572" x2="1239.2151" y2="211.2272" gradientTransform="matrix(1 0 0 -1 0 901.2912)">
	<stop  offset="0" style="stop-color:#670C93"/>
	<stop  offset="1" style="stop-color:#CE92E9"/>
</linearGradient>
<path class="st27" d="M1084.7,547.9c5.5-13.5,17.3-21.2,23.5-25.2c14.5-9.5,23.8-7.8,57.1-12.8c44.4-6.8,49.7-13.2,64.6-8
	c19.6,6.8,29.8,24.6,34.5,32.7c23.7,41.1-4,62,3.1,143.9c2.9,33.4,10.3,62.5-7.5,79.7c-3.8,3.6-8,5.5-16.4,9.3
	c-33.4,15-63.3,12.4-81.4,10.6c-20-2-30.1-3.1-35.4-10.2c-8.5-11.3,0.3-25.6,1.8-50.5c1.1-17.8-3-32-11.1-60.2
	C1098.6,591.6,1074.1,573.7,1084.7,547.9z"/>
<linearGradient id="SVGID_21_" gradientUnits="userSpaceOnUse" x1="5883.5557" y1="1302.8665" x2="5957.0059" y2="1210.4666" gradientTransform="matrix(0.9662 0.2576 0.2576 -0.9662 -4869.9072 198.6209)">
	<stop  offset="0" style="stop-color:#FFC444"/>
	<stop  offset="1" style="stop-color:#F36F56"/>
</linearGradient>
<path class="st28" d="M1159,485.6c-2-7.2,1.5-13.9,2.3-15.3c3.3-6,4.1-6.8,5.7-7.9l2.2-1.3l0.3-0.1c2.3-0.5,4.7-0.6,7.1-0.4
	c3.1,0.7,6.3,13.1,5.4,30.8c0.1,0.7,0.3,1.4,0.4,2c0.5,2.8,0.9,5.5,1.2,8.2c0.3,2.5,3.9,2.5,6.5,2.3c10.4-0.7,15.5,0.2,15.9,1.8
	c0.8,2.9-11.5,12.4-26.7,14.5c-20.4,0.2-37.1-2-35.3-5.3c0.8-1.4,16.6-5.6,21.1-9.7c4.1-3.8,3.8-7.6,4.1-10.4
	C1167.6,494.2,1160.4,490.9,1159,485.6z"/>
<path class="st24" d="M1162.7,456.1c0,5.5,2.6,11.3,3.9,12.2c0.8,0.6,1.5,1.3,2,2.2c0.1,0.2,0.2,0.4,0.3,0.6c1.2,3.5-4.3,7.5-3.2,9
	c0.8,1.1,4.5-0.4,4.9,0.6s-2.7,2.8-2.2,3.9c0.3,0.8,2.3,0.1,3.4,1.3c0.6,0.6,0.4,1.1,1.1,3c0.3,1,0.7,2,1.3,2.9
	c1.9,3.2,7.2,4.4,8.3,3.1c0.3-0.4,0-0.7,0.3-1.9c0.2-0.8,0.6-1.7,1-2.4c1.1-1.8,3.8-3.1,6.5-5.1c5-3.6,6.3-6.7,6.8-7.7
	c0.1-0.4,0.2-0.6,0.3-0.9c1.3-4,1.3-9.9-0.5-13.6c-3-6.1-9.9-3.2-15.5-9.2c-6.5-7-2.6-16.5-6.1-17.5
	C1171.4,435.6,1162.7,446,1162.7,456.1z"/>
<linearGradient id="SVGID_22_" gradientUnits="userSpaceOnUse" x1="5887.0391" y1="1307.4873" x2="5969.0356" y2="1204.3219" gradientTransform="matrix(0.9662 0.2576 0.2576 -0.9662 -4869.9072 198.6209)">
	<stop  offset="0" style="stop-color:#FFC444"/>
	<stop  offset="1" style="stop-color:#F36F56"/>
</linearGradient>
<path class="st29" d="M1167.7,478.9c1.3-1.8,3.7-0.1,3.7,2.3s-2.3,4.9-4.5,4.4S1165.8,481.4,1167.7,478.9z"/>
<path class="st24" d="M1168.7,474.9l-3.1,4c0,0-3.3,5-5.3,2.2c-1.6-2.2-2-2.2-2.1-2.1s0,0,0,0s0.2-1.1,0.5-2.1
	c-1.2,1.7-2.1,3.7-2.7,5.7c-0.7,2.5-1.4,5.2,0,7.8c1,1.7,2.6,3,4.6,3.6c0,0,1.2,0.3,6-0.6c0,0-5.3-3.8-5.4-4.8
	c-0.2-2.5,3.2-3.8,5.8-8.9C1167.8,478.2,1168.4,476.6,1168.7,474.9z"/>
<linearGradient id="SVGID_23_" gradientUnits="userSpaceOnUse" x1="1078.0011" y1="278.1225" x2="1195.7411" y2="165.6925" gradientTransform="matrix(1 0 0 -1 0 901.2912)">
	<stop  offset="0" style="stop-color:#E38DDD"/>
	<stop  offset="1" style="stop-color:#9571F6"/>
</linearGradient>
<path class="st30" d="M1179.4,754.6c-5.9-11.7,8.5-27.3-0.9-45.2c-8-15.2-22.5-11.8-29.2-25.7c-8.1-16.8,9.5-29.3,8.8-54.9
	c-0.8-30.5-27-61.1-42.5-58.4c-10,1.7-11.3,16.7-18.3,33c8.1,17.4,14.8,35.3,20.1,53.8c8.1,28.3,12.2,42.4,11.1,60.2
	c-1.5,24.8-10.2,39.2-1.8,50.5c5.3,7.1,15.4,8.2,35.4,10.2c18.2,1.8,48.1,4.4,81.4-10.6c4.2-1.9,7.4-3.3,10-4.7
	C1201.4,770.6,1184,763.9,1179.4,754.6z"/>
<path class="st23" d="M1026.4,610.8l9.7-4.2c5.5,5.6,12.5,11.1,18.4,9.3c8.8-2.6,6.6-18.8,17.3-47.1c12.1-32.1,25.8-40.4,32.8-43.4
	c3.9-1.7,6.5-2.8,9.7-2c14.8,3.6,19.6,42,15.5,70.8c-2.3,16.2-6.9,48-33,63.1c-3.7,2.1-24.1,13.9-44.3,4.7
	C1035.3,654,1024.7,633.6,1026.4,610.8z"/>
<linearGradient id="SVGID_24_" gradientUnits="userSpaceOnUse" x1="1105.802" y1="499.3852" x2="1051.022" y2="385.1252" gradientTransform="matrix(1 0 0 -1 0 901.2912)">
	<stop  offset="0" style="stop-color:#670C93"/>
	<stop  offset="1" style="stop-color:#DD70CC"/>
</linearGradient>
<path class="st31" d="M1126.2,476.4c5.1-7.2,7.5-15.9,6.9-24.7c-2-25.6-30.8-44.2-64.4-41.5s-59.2,25.4-57.2,51s30.8,44.2,64.4,41.6
	c11.8-0.8,23.2-4.4,33.3-10.5c6.5,0.6,16.6,1.7,21.9,2.2c1.1,0.1,2.1-0.7,2.2-1.8c0-0.4,0-0.7-0.2-1.1L1126.2,476.4z"/>
<g class="st22">
	<path class="st23" d="M1106.4,463.7c-14.1-4.7-28.1,8.6-38.2,0.9s-1.2-25.4-11.2-36.7c-4.8-5.4-12.2-7.5-20.6-7.8
		c-16.2,9.5-26.2,24.8-24.9,41.1c2,25.6,30.8,44.2,64.4,41.6c11.8-0.8,23.2-4.4,33.3-10.5c5.1,0.5,12.5,1.2,18,1.8
		C1121.7,473.6,1113.7,466.1,1106.4,463.7z"/>
</g>
<path class="st2" d="M819.5,516.7c-2.9-0.2-5.8-0.2-8.7,0c0-0.3-0.1-0.6-0.2-0.8c-1.6-5.4-7.2-8.6-12.7-7.2
	c-5.3,1.4-8.5,6.9-7.1,12.3c0,0.1,0,0.1,0.1,0.2c0.1,0.3,0.2,0.5,0.3,0.8c-2.6,1.2-5.1,2.7-7.5,4.3c-0.2-0.2-0.4-0.4-0.6-0.7
	c-4-4-10.5-4-14.5,0c-3.9,4-3.9,10.4,0.1,14.3c0,0,0,0,0.1,0.1c0.2,0.2,0.4,0.4,0.6,0.6c-1.6,2.4-3,4.9-4.2,7.5
	c-0.3-0.1-0.5-0.2-0.8-0.3c-5.4-1.5-10.9,1.7-12.4,7c0,0.1,0,0.1,0,0.2c-1.4,5.5,1.9,11,7.4,12.5l0.8,0.2c-0.2,2.9-0.2,5.8,0.1,8.6
	l-0.8,0.2c-5.3,1.4-8.5,6.9-7.1,12.2c0,0.1,0,0.2,0.1,0.3c1.6,5.4,7.2,8.6,12.6,7.2c0.3-0.1,0.6-0.2,0.8-0.3
	c1.3,2.6,2.8,5.1,4.4,7.5l-0.6,0.6c-3.9,4-3.9,10.4,0.1,14.3c0,0,0,0,0.1,0.1c4,4,10.5,4,14.5,0c0.2-0.2,0.4-0.4,0.6-0.6
	c2.4,1.6,4.9,3.1,7.6,4.3c-0.1,0.3-0.2,0.5-0.3,0.8c-1.4,5.5,1.9,11,7.4,12.5c5.4,1.5,10.9-1.7,12.4-7.1c0,0,0-0.1,0-0.1
	c0.1-0.3,0.1-0.6,0.2-0.8c2.9,0.2,5.8,0.2,8.7,0c0,0.3,0.1,0.6,0.2,0.8c1.6,5.4,7.2,8.6,12.6,7.2c5.3-1.4,8.5-6.9,7.1-12.2
	c0-0.1,0-0.2-0.1-0.3c-0.1-0.3-0.2-0.6-0.3-0.8c2.6-1.2,5.1-2.7,7.5-4.3c0.2,0.2,0.4,0.4,0.6,0.6c4,4,10.5,4,14.5,0
	c3.9-4,3.9-10.4-0.1-14.3c0,0,0,0-0.1-0.1c-0.2-0.2-0.4-0.4-0.7-0.6c1.6-2.4,3-4.9,4.2-7.5c0.3,0.1,0.5,0.2,0.8,0.3
	c5.4,1.5,10.9-1.7,12.4-7.1c0,0,0-0.1,0-0.1c1.4-5.5-1.9-11-7.4-12.5c-0.3-0.1-0.6-0.1-0.8-0.2c0.2-2.9,0.2-5.8-0.1-8.6
	c0.3,0,0.6-0.1,0.8-0.2c5.3-1.4,8.5-6.9,7.1-12.2c0-0.1,0-0.2-0.1-0.2c-1.6-5.4-7.2-8.6-12.6-7.2c-0.3,0.1-0.5,0.2-0.8,0.3
	c-1.3-2.6-2.8-5.1-4.4-7.5c0.2-0.2,0.4-0.4,0.6-0.6c3.9-4,3.9-10.4-0.1-14.3c0,0,0,0-0.1-0.1c-4-4-10.5-4-14.5,0
	c-0.2,0.2-0.4,0.4-0.6,0.6c-2.4-1.6-4.9-3.1-7.6-4.3c0.1-0.3,0.2-0.5,0.3-0.8c1.4-5.5-1.9-11-7.4-12.4c-5.4-1.5-10.9,1.7-12.4,7.1
	c0,0,0,0.1,0,0.1C819.6,516.1,819.6,516.4,819.5,516.7z M825.1,536.2c19.9,5.3,31.9,25.5,26.9,45.2c-5.1,19.6-25.1,31.4-44.7,26.3
	c-0.1,0-0.3-0.1-0.4-0.1c-19.9-5.3-31.9-25.5-26.9-45.2c5.1-19.6,25.1-31.4,44.7-26.3C824.8,536.1,824.9,536.2,825.1,536.2
	L825.1,536.2z"/>
<path class="st2" d="M1030.4,179.9c-1.7-0.1-3.4-0.1-5.1,0c0-0.2-0.1-0.3-0.1-0.5c-0.9-3.2-4.2-5-7.4-4.2c-3.1,0.8-5,4-4.1,7.2
	c0,0,0,0.1,0,0.1c0,0.2,0.1,0.3,0.2,0.5c-1.5,0.7-3,1.6-4.3,2.5c-0.1-0.1-0.2-0.3-0.3-0.4c-2.3-2.3-6.1-2.3-8.4,0
	c-2.3,2.3-2.2,6.1,0.1,8.4c0,0,0,0,0,0l0.4,0.3c-0.9,1.4-1.8,2.8-2.5,4.4l-0.5-0.1c-3.1-0.9-6.4,1-7.2,4.1c0,0,0,0,0,0.1
	c-0.8,3.2,1.1,6.4,4.3,7.3c0.2,0,0.3,0.1,0.5,0.1c-0.1,1.7-0.1,3.3,0.1,5l-0.5,0.1c-3.1,0.8-5,4-4.1,7.2c0,0,0,0.1,0,0.1
	c0.9,3.2,4.2,5,7.4,4.2c0.2,0,0.3-0.1,0.5-0.1c0.8,1.5,1.6,3,2.6,4.3l-0.4,0.3c-2.3,2.3-2.2,6.1,0.1,8.3c0,0,0,0,0,0
	c2.3,2.3,6.1,2.3,8.4,0c0.1-0.1,0.2-0.2,0.3-0.4c1.4,0.9,2.9,1.8,4.4,2.5c-0.1,0.2-0.1,0.3-0.2,0.5c-0.8,3.2,1.1,6.4,4.3,7.3
	c3.1,0.9,6.4-1,7.2-4.1c0,0,0-0.1,0-0.1c0-0.2,0.1-0.3,0.1-0.5c1.7,0.1,3.3,0.1,5,0c0,0.2,0.1,0.3,0.1,0.5c0.9,3.2,4.2,5,7.3,4.2
	c3.1-0.8,5-4,4.1-7.1c0,0,0-0.1,0-0.1c0-0.2-0.1-0.3-0.2-0.5c1.5-0.7,3-1.6,4.3-2.5c0.1,0.1,0.2,0.3,0.3,0.4c2.3,2.3,6.1,2.3,8.4,0
	c2.3-2.3,2.2-6.1-0.1-8.3c0,0,0,0,0,0c-0.1-0.1-0.3-0.2-0.4-0.3c0.9-1.4,1.8-2.8,2.5-4.4c0.2,0.1,0.3,0.1,0.5,0.1
	c3.1,0.9,6.3-1,7.2-4.1c0,0,0-0.1,0-0.1c0.8-3.2-1.1-6.4-4.3-7.3l-0.5-0.1c0.1-1.7,0.1-3.3-0.1-5l0.5-0.1c3.1-0.8,5-4,4.1-7.1
	c0,0,0-0.1,0-0.1c-0.9-3.2-4.2-5-7.3-4.2c-0.2,0-0.3,0.1-0.5,0.2c-0.7-1.5-1.6-3-2.6-4.4l0.4-0.3c2.3-2.3,2.2-6.1-0.1-8.3
	c0,0,0,0,0,0c-2.3-2.3-6.1-2.3-8.4,0l-0.3,0.4c-1.4-0.9-2.9-1.8-4.4-2.5c0-0.2,0.1-0.3,0.2-0.5c0.8-3.2-1.1-6.4-4.3-7.3
	c-3.1-0.9-6.4,1-7.2,4.1c0,0,0,0,0,0.1C1030.5,179.6,1030.4,179.8,1030.4,179.9z M1033.7,191.3c11.5,3,18.5,14.7,15.7,26.3
	c-3,11.4-14.6,18.3-26,15.3c-0.1,0-0.2,0-0.3-0.1c-11.6-3-18.5-14.7-15.7-26.3c3-11.4,14.6-18.3,26-15.3
	C1033.5,191.3,1033.6,191.3,1033.7,191.3z"/>
</svg>
