<?xml version="1.0" encoding="utf-8"?>
<!-- Generator: Adobe Illustrator 24.0.1, SVG Export Plug-In . SVG Version: 6.00 Build 0)  -->
<svg version="1.1" id="Слой_1" xmlns="http://www.w3.org/2000/svg" xmlns:xlink="http://www.w3.org/1999/xlink" x="0px" y="0px"
	 viewBox="0 0 1366 316.97" style="enable-background:new 0 0 1366 316.97;" xml:space="preserve">
<style type="text/css">
	.st0{fill:#200438;}
	.st1{fill:url(#SVGID_1_);}
	.st2{fill:url(#SVGID_2_);}
	.st3{fill:url(#SVGID_3_);}
	.st4{fill:url(#SVGID_4_);}
	.st5{fill:url(#SVGID_5_);}
	.st6{fill:url(#SVGID_6_);}
	.st7{fill:url(#SVGID_7_);}
	.st8{fill:url(#SVGID_8_);}
	.st9{fill:url(#SVGID_9_);}
	.st10{fill:url(#SVGID_10_);}
	.st11{fill:url(#SVGID_11_);}
	.st12{fill:url(#SVGID_12_);}
	.st13{display:none;}
</style>
<rect y="0" class="st0" width="1366" height="316.97"/>
<g>
	<g>
		<g>
			
				<linearGradient id="SVGID_1_" gradientUnits="userSpaceOnUse" x1="3392.2944" y1="133.7306" x2="3658.7246" y2="133.7306" gradientTransform="matrix(-1 0 0 -1 4758.2944 317.2756)">
				<stop  offset="0" style="stop-color:#330652"/>
				<stop  offset="1" style="stop-color:#8D10C3"/>
			</linearGradient>
			<rect x="1099.57" y="182.1" class="st1" width="266.43" height="2.89"/>
		</g>
		<g>
			
				<linearGradient id="SVGID_2_" gradientUnits="userSpaceOnUse" x1="3654.3345" y1="133.7356" x2="3669.3945" y2="133.7356" gradientTransform="matrix(-1 0 0 -1 4758.2944 317.2756)">
				<stop  offset="0" style="stop-color:#330652"/>
				<stop  offset="1" style="stop-color:#8D10C3"/>
			</linearGradient>
			<circle class="st2" cx="1096.43" cy="183.54" r="7.53"/>
		</g>
	</g>
	<g>
		<g>
			
				<linearGradient id="SVGID_3_" gradientUnits="userSpaceOnUse" x1="3392.2944" y1="170.7856" x2="3815.2144" y2="170.7856" gradientTransform="matrix(-1 0 0 -1 4758.2944 317.2756)">
				<stop  offset="0" style="stop-color:#330652"/>
				<stop  offset="1" style="stop-color:#8D10C3"/>
			</linearGradient>
			<polygon class="st3" points="943.08,166.58 1148.26,166.58 1195.59,129.29 1366,129.29 1366,126.4 1194.8,126.4 1147.47,163.69 
				943.08,163.69 			"/>
		</g>
		<g>
			
				<linearGradient id="SVGID_4_" gradientUnits="userSpaceOnUse" x1="3811.6812" y1="152.1356" x2="3826.7478" y2="152.1356" gradientTransform="matrix(-1 0 0 -1 4758.2944 317.2756)">
				<stop  offset="0" style="stop-color:#330652"/>
				<stop  offset="1" style="stop-color:#8D10C3"/>
			</linearGradient>
			<path class="st4" d="M941.91,158.16c-3.85-1.56-8.24,0.29-9.81,4.15c-1.56,3.85,0.29,8.24,4.15,9.81
				c3.85,1.56,8.24-0.29,9.81-4.15C947.62,164.11,945.77,159.72,941.91,158.16z"/>
		</g>
	</g>
	<g>
		<g>
			
				<linearGradient id="SVGID_5_" gradientUnits="userSpaceOnUse" x1="3392.2944" y1="102.4706" x2="3722.4043" y2="102.4706" gradientTransform="matrix(-1 0 0 -1 4758.2944 317.2756)">
				<stop  offset="0" style="stop-color:#330652"/>
				<stop  offset="1" style="stop-color:#8D10C3"/>
			</linearGradient>
			<polygon class="st5" points="1173.11,229.71 1366,229.71 1366,226.82 1173.83,226.82 1138.42,199.9 1035.89,199.9 
				1035.89,202.79 1137.7,202.79 			"/>
		</g>
		<g>
			
				<linearGradient id="SVGID_6_" gradientUnits="userSpaceOnUse" x1="3720.9666" y1="115.9313" x2="3738.9124" y2="115.9313" gradientTransform="matrix(-1 0 0 -1 4758.2944 317.2756)">
				<stop  offset="0" style="stop-color:#330652"/>
				<stop  offset="1" style="stop-color:#8D10C3"/>
			</linearGradient>
			<path class="st6" d="M1024.98,209.66L1024.98,209.66c-4.58-1.86-6.8-7.1-4.94-11.69c0.9-2.22,2.61-3.96,4.82-4.89
				c2.21-0.93,4.65-0.95,6.87-0.05c4.58,1.86,6.8,7.1,4.94,11.69c-0.9,2.22-2.61,3.96-4.82,4.89c-1.13,0.48-2.31,0.71-3.49,0.71
				C1027.21,210.32,1026.07,210.1,1024.98,209.66z M1025.98,195.74c-1.5,0.63-2.66,1.81-3.27,3.32c-1.26,3.11,0.24,6.66,3.35,7.93
				c1.51,0.61,3.16,0.6,4.66-0.04c1.5-0.63,2.66-1.81,3.27-3.32c1.26-3.11-0.24-6.66-3.35-7.93c-0.74-0.3-1.51-0.45-2.29-0.45
				C1027.55,195.25,1026.75,195.42,1025.98,195.74z"/>
		</g>
	</g>
</g>
<g>
	<g>
		<g>
			
				<linearGradient id="SVGID_7_" gradientUnits="userSpaceOnUse" x1="3361.1694" y1="639.9547" x2="3627.5994" y2="639.9547" gradientTransform="matrix(1 0 0 1 -3361.1694 -493.4397)">
				<stop  offset="0" style="stop-color:#330652"/>
				<stop  offset="1" style="stop-color:#8D10C3"/>
			</linearGradient>
			<rect y="145.07" class="st7" width="266.43" height="2.89"/>
		</g>
		<g>
			
				<linearGradient id="SVGID_8_" gradientUnits="userSpaceOnUse" x1="3623.2095" y1="639.9497" x2="3638.2695" y2="639.9497" gradientTransform="matrix(1 0 0 1 -3361.1694 -493.4397)">
				<stop  offset="0" style="stop-color:#330652"/>
				<stop  offset="1" style="stop-color:#8D10C3"/>
			</linearGradient>
			<circle class="st8" cx="269.57" cy="146.51" r="7.53"/>
		</g>
	</g>
	<g>
		<g>
			
				<linearGradient id="SVGID_9_" gradientUnits="userSpaceOnUse" x1="3361.1694" y1="677.0047" x2="3784.0894" y2="677.0047" gradientTransform="matrix(1 0 0 1 -3361.1694 -493.4397)">
				<stop  offset="0" style="stop-color:#330652"/>
				<stop  offset="1" style="stop-color:#8D10C3"/>
			</linearGradient>
			<polygon class="st9" points="422.92,163.47 217.74,163.47 170.41,200.77 0,200.77 0,203.66 171.2,203.66 218.53,166.36 
				422.92,166.36 			"/>
		</g>
		<g>
			
				<linearGradient id="SVGID_10_" gradientUnits="userSpaceOnUse" x1="3780.5562" y1="658.3497" x2="3795.6228" y2="658.3497" gradientTransform="matrix(1 0 0 1 -3361.1694 -493.4397)">
				<stop  offset="0" style="stop-color:#330652"/>
				<stop  offset="1" style="stop-color:#8D10C3"/>
			</linearGradient>
			<path class="st10" d="M424.09,171.89c3.85,1.56,8.24-0.29,9.81-4.15c1.56-3.85-0.29-8.24-4.15-9.81
				c-3.85-1.56-8.24,0.29-9.81,4.15C418.38,165.94,420.23,170.33,424.09,171.89z"/>
		</g>
	</g>
	<g>
		<g>
			
				<linearGradient id="SVGID_11_" gradientUnits="userSpaceOnUse" x1="3361.1694" y1="608.6947" x2="3691.2793" y2="608.6947" gradientTransform="matrix(1 0 0 1 -3361.1694 -493.4397)">
				<stop  offset="0" style="stop-color:#330652"/>
				<stop  offset="1" style="stop-color:#8D10C3"/>
			</linearGradient>
			<polygon class="st11" points="192.89,100.35 0,100.35 0,103.24 192.17,103.24 227.58,130.16 330.11,130.16 330.11,127.27 
				228.29,127.27 			"/>
		</g>
		<g>
			
				<linearGradient id="SVGID_12_" gradientUnits="userSpaceOnUse" x1="3689.8416" y1="622.1553" x2="3707.7874" y2="622.1553" gradientTransform="matrix(1 0 0 1 -3361.1694 -493.4397)">
				<stop  offset="0" style="stop-color:#330652"/>
				<stop  offset="1" style="stop-color:#8D10C3"/>
			</linearGradient>
			<path class="st12" d="M341.02,120.4L341.02,120.4c4.58,1.86,6.8,7.1,4.94,11.69c-0.9,2.22-2.61,3.96-4.82,4.89
				c-2.21,0.93-4.65,0.95-6.87,0.05c-4.58-1.86-6.8-7.1-4.94-11.69c0.9-2.22,2.61-3.96,4.82-4.89c1.13-0.48,2.31-0.71,3.49-0.71
				C338.79,119.73,339.93,119.95,341.02,120.4z M340.02,134.32c1.5-0.63,2.66-1.81,3.27-3.32c1.26-3.11-0.24-6.66-3.35-7.93
				c-1.51-0.61-3.16-0.6-4.66,0.04c-1.5,0.63-2.66,1.81-3.27,3.32c-1.26,3.11,0.24,6.66,3.35,7.93c0.74,0.3,1.51,0.45,2.29,0.45
				C338.45,134.8,339.25,134.64,340.02,134.32z"/>
		</g>
	</g>
</g>
<g id="Слой_2_1_" class="st13">
</g>
</svg>
