<?xml version="1.0" encoding="utf-8"?>
<!-- Generator: Adobe Illustrator 24.0.1, SVG Export Plug-In . SVG Version: 6.00 Build 0)  -->
<svg version="1.1" id="Слой_1" xmlns="http://www.w3.org/2000/svg" xmlns:xlink="http://www.w3.org/1999/xlink" x="0px" y="0px"
	 viewBox="0 0 1365.47 800" style="enable-background:new 0 0 1365.47 800;" xml:space="preserve">
<style type="text/css">
	.st0{fill:#200438;}
	.st1{fill:url(#SVGID_1_);}
	.st2{fill:url(#SVGID_2_);}
	.st3{fill:url(#SVGID_3_);}
	.st4{fill:url(#SVGID_4_);}
	.st5{fill:url(#SVGID_5_);}
	.st6{fill:url(#SVGID_6_);}
	.st7{fill:url(#SVGID_7_);}
	.st8{fill:url(#SVGID_8_);}
	.st9{fill:url(#SVGID_9_);}
	.st10{fill:url(#SVGID_10_);}
</style>
<rect y="0" class="st0" width="1365.47" height="800"/>
<g>
	<g>
		<g>
			
				<linearGradient id="SVGID_1_" gradientUnits="userSpaceOnUse" x1="3391.7595" y1="586.9506" x2="3667.8994" y2="586.9506" gradientTransform="matrix(-1 0 0 -1 4757.2295 799.2756)">
				<stop  offset="0" style="stop-color:#330652"/>
				<stop  offset="1" style="stop-color:#8D10C3"/>
			</linearGradient>
			<rect x="1089.33" y="210.83" class="st1" width="276.14" height="2.99"/>
		</g>
		<g>
			
				<linearGradient id="SVGID_2_" gradientUnits="userSpaceOnUse" x1="3663.3594" y1="586.9456" x2="3678.9595" y2="586.9456" gradientTransform="matrix(-1 0 0 -1 4757.2295 799.2756)">
				<stop  offset="0" style="stop-color:#330652"/>
				<stop  offset="1" style="stop-color:#8D10C3"/>
			</linearGradient>
			<circle class="st2" cx="1086.07" cy="212.33" r="7.8"/>
		</g>
	</g>
	<g>
		<g>
			
				<linearGradient id="SVGID_3_" gradientUnits="userSpaceOnUse" x1="3391.7595" y1="625.3506" x2="3830.0996" y2="625.3506" gradientTransform="matrix(-1 0 0 -1 4757.2295 799.2756)">
				<stop  offset="0" style="stop-color:#330652"/>
				<stop  offset="1" style="stop-color:#8D10C3"/>
			</linearGradient>
			<polygon class="st3" points="927.13,194.75 1139.79,194.75 1188.85,156.1 1365.47,156.1 1365.47,153.1 1188.03,153.1 
				1138.97,191.76 927.13,191.76 			"/>
		</g>
		<g>
			
				<linearGradient id="SVGID_4_" gradientUnits="userSpaceOnUse" x1="3826.4346" y1="606.0256" x2="3842.0444" y2="606.0256" gradientTransform="matrix(-1 0 0 -1 4757.2295 799.2756)">
				<stop  offset="0" style="stop-color:#330652"/>
				<stop  offset="1" style="stop-color:#8D10C3"/>
			</linearGradient>
			<path class="st4" d="M925.92,186.02c-3.99-1.62-8.54,0.3-10.16,4.3c-1.62,3.99,0.3,8.54,4.3,10.16c3.99,1.62,8.54-0.3,10.16-4.3
				C931.84,192.19,929.92,187.64,925.92,186.02z"/>
		</g>
	</g>
	<g>
		<g>
			
				<linearGradient id="SVGID_5_" gradientUnits="userSpaceOnUse" x1="3391.7595" y1="665.4506" x2="3632.3496" y2="665.4506" gradientTransform="matrix(-1 0 0 -1 4757.2295 799.2756)">
				<stop  offset="0" style="stop-color:#330652"/>
				<stop  offset="1" style="stop-color:#8D10C3"/>
			</linearGradient>
			<polygon class="st5" points="1127.62,148.88 1153.37,121.76 1365.47,121.76 1365.47,118.77 1151.69,118.77 1124.88,147 			"/>
		</g>
		<g>
			
				<linearGradient id="SVGID_6_" gradientUnits="userSpaceOnUse" x1="3624.3362" y1="645.2694" x2="3642.9429" y2="645.2694" gradientTransform="matrix(-1 0 0 -1 4757.2295 799.2756)">
				<stop  offset="0" style="stop-color:#330652"/>
				<stop  offset="1" style="stop-color:#8D10C3"/>
			</linearGradient>
			<path class="st6" d="M1120.09,162.62c-4.75-1.93-7.05-7.36-5.12-12.11c0.93-2.3,2.71-4.1,5-5.07s4.82-0.98,7.12-0.05l0,0
				c4.75,1.93,7.05,7.36,5.12,12.11c-0.93,2.3-2.71,4.1-5,5.07c-1.17,0.49-2.39,0.74-3.62,0.74
				C1122.4,163.3,1121.22,163.07,1120.09,162.62z M1125.96,148.15c-1.56-0.63-3.28-0.62-4.83,0.04c-1.55,0.66-2.75,1.88-3.39,3.44
				c-1.31,3.22,0.25,6.91,3.47,8.21c1.56,0.63,3.28,0.62,4.83-0.04c1.55-0.66,2.76-1.88,3.39-3.44
				C1130.74,153.15,1129.18,149.46,1125.96,148.15L1125.96,148.15z"/>
		</g>
	</g>
	<g>
		<g>
			
				<linearGradient id="SVGID_7_" gradientUnits="userSpaceOnUse" x1="3391.7595" y1="554.5456" x2="3733.9094" y2="554.5456" gradientTransform="matrix(-1 0 0 -1 4757.2295 799.2756)">
				<stop  offset="0" style="stop-color:#330652"/>
				<stop  offset="1" style="stop-color:#8D10C3"/>
			</linearGradient>
			<polygon class="st7" points="1165.55,260.18 1365.47,260.18 1365.47,257.18 1166.29,257.18 1129.6,229.28 1023.32,229.28 
				1023.32,232.28 1128.85,232.28 			"/>
		</g>
		<g>
			
				<linearGradient id="SVGID_8_" gradientUnits="userSpaceOnUse" x1="3732.4063" y1="568.4913" x2="3751.0127" y2="568.4913" gradientTransform="matrix(-1 0 0 -1 4757.2295 799.2756)">
				<stop  offset="0" style="stop-color:#330652"/>
				<stop  offset="1" style="stop-color:#8D10C3"/>
			</linearGradient>
			<path class="st8" d="M1012.02,239.4L1012.02,239.4c-4.75-1.93-7.05-7.36-5.12-12.11c0.93-2.3,2.71-4.1,5-5.07
				s4.82-0.99,7.12-0.05c4.75,1.93,7.05,7.36,5.12,12.11c-0.93,2.3-2.71,4.1-5,5.07c-1.17,0.49-2.39,0.74-3.62,0.74
				C1014.33,240.08,1013.15,239.85,1012.02,239.4z M1013.06,224.97c-1.55,0.66-2.75,1.88-3.39,3.44c-1.31,3.22,0.25,6.91,3.47,8.21
				c1.56,0.64,3.28,0.62,4.83-0.04c1.55-0.66,2.76-1.88,3.39-3.44c1.31-3.22-0.25-6.91-3.47-8.21c-0.77-0.31-1.57-0.47-2.37-0.47
				C1014.68,224.47,1013.85,224.64,1013.06,224.97z"/>
		</g>
	</g>
	<g>
		<g>
			
				<linearGradient id="SVGID_9_" gradientUnits="userSpaceOnUse" x1="3391.7595" y1="500.4406" x2="3627.0493" y2="500.4406" gradientTransform="matrix(-1 0 0 -1 4757.2295 799.2756)">
				<stop  offset="0" style="stop-color:#330652"/>
				<stop  offset="1" style="stop-color:#8D10C3"/>
			</linearGradient>
			<polygon class="st9" points="1365.47,313.89 1156.39,313.89 1130.18,285.66 1132.86,283.78 1158.04,310.9 1365.47,310.9 			"/>
		</g>
		<g>
			
				<linearGradient id="SVGID_10_" gradientUnits="userSpaceOnUse" x1="3619.9819" y1="519.9426" x2="3638.5972" y2="519.9426" gradientTransform="matrix(-1 0 0 -1 4757.2295 799.2756)">
				<stop  offset="0" style="stop-color:#330652"/>
				<stop  offset="1" style="stop-color:#8D10C3"/>
			</linearGradient>
			<path class="st10" d="M1127.94,288.64c-1.23,0-2.46-0.25-3.62-0.74c-2.29-0.97-4.06-2.77-5-5.07c-0.93-2.3-0.92-4.83,0.05-7.12
				c0.97-2.29,2.77-4.06,5.07-5c2.3-0.93,4.83-0.91,7.12,0.05c2.29,0.97,4.06,2.77,5,5.07c0.93,2.3,0.92,4.83-0.05,7.12
				c-0.97,2.29-2.77,4.06-5.07,5l0,0C1130.3,288.41,1129.12,288.64,1127.94,288.64z M1127.94,273.03c-0.8,0-1.6,0.16-2.37,0.47
				c-1.56,0.63-2.78,1.84-3.44,3.39c-0.66,1.55-0.67,3.27-0.04,4.83s1.84,2.78,3.39,3.44c1.55,0.65,3.27,0.67,4.83,0.04l0,0
				c1.56-0.63,2.78-1.84,3.44-3.39c0.66-1.55,0.67-3.27,0.04-4.83s-1.84-2.78-3.39-3.44C1129.6,273.2,1128.77,273.03,1127.94,273.03
				z"/>
		</g>
	</g>
</g>
</svg>
