<?xml version="1.0" encoding="utf-8"?>
<!-- Generator: Adobe Illustrator 24.0.1, SVG Export Plug-In . SVG Version: 6.00 Build 0)  -->
<svg version="1.1" id="Слой_1" xmlns="http://www.w3.org/2000/svg" xmlns:xlink="http://www.w3.org/1999/xlink" x="0px" y="0px"
	 viewBox="0 0 17.12 11.47" style="enable-background:new 0 0 17.12 11.47;" xml:space="preserve">
<style type="text/css">
	.st0{fill:#878787;}
</style>
<path class="st0" d="M8.58,6.88L8.58,6.88c0.13,0,0.26-0.04,0.36-0.11l0.03-0.02c0.01,0,0.01-0.01,0.02-0.01l0.33-0.27l7.78-6.44
	C17.09,0.01,17.06,0,17.03,0H0.09C0.07,0,0.05,0.01,0.03,0.02l8.14,6.73C8.28,6.83,8.43,6.88,8.58,6.88L8.58,6.88z M0,0.91v9.54
	l5.83-4.72L0,0.91z M11.29,5.76l5.83,4.69V0.94L11.29,5.76z M9.44,7.29c-0.23,0.19-0.54,0.3-0.86,0.3s-0.62-0.1-0.86-0.3l-1.34-1.1
	L0,11.37v0.02c0,0.05,0.04,0.09,0.09,0.09h16.94c0.05,0,0.09-0.04,0.09-0.09v-0.01l-6.39-5.14L9.44,7.29z"/>
</svg>
