<?xml version="1.0" encoding="utf-8"?>
<!-- Generator: Adobe Illustrator 24.0.1, SVG Export Plug-In . SVG Version: 6.00 Build 0)  -->
<svg version="1.1" id="Слой_1" xmlns="http://www.w3.org/2000/svg" xmlns:xlink="http://www.w3.org/1999/xlink" x="0px" y="0px"
	 viewBox="0 0 275.08 43.12" style="enable-background:new 0 0 275.08 43.12;" xml:space="preserve">
<style type="text/css">
	.st0{enable-background:new    ;}
	.st1{fill:#FFFFFF;}
	.st2{display:none;}
</style>
<g>
	<g>
		<g class="st0">
			<path class="st1" d="M84.91,27.85h-9.61l-1.99,4.52h-2.66l8.19-18.08h2.56l8.21,18.08H86.9L84.91,27.85z M84.01,25.78l-3.9-8.86
				l-3.9,8.86H84.01z"/>
			<path class="st1" d="M108.28,14.29v18.08h-2.58v-8.06H95.32v8.06h-2.58V14.29h2.58v7.77h10.38v-7.77H108.28z"/>
			<path class="st1" d="M125.66,27.85h-9.61l-1.99,4.52h-2.66l8.19-18.08h2.56l8.21,18.08h-2.71L125.66,27.85z M124.75,25.78
				l-3.9-8.86l-3.9,8.86H124.75z"/>
			<path class="st1" d="M148.33,14.29v18.08h-2.53V16.54h-8l-0.18,5.29c-0.09,2.5-0.29,4.52-0.61,6.07
				c-0.32,1.55-0.82,2.72-1.51,3.5c-0.69,0.78-1.62,1.18-2.79,1.18c-0.53,0-1.08-0.07-1.63-0.21l0.18-2.3
				c0.27,0.07,0.55,0.1,0.83,0.1c0.74,0,1.33-0.3,1.78-0.89c0.45-0.59,0.78-1.48,1.01-2.67c0.22-1.19,0.37-2.75,0.44-4.7l0.28-7.62
				H148.33z"/>
			<path class="st1" d="M153.96,14.29h2.56v13.94l10.69-13.94h2.38v18.08h-2.53V18.45l-10.72,13.92h-2.38V14.29z"/>
			<path class="st1" d="M187.63,16.54h-6.2v15.83h-2.53V16.54h-6.17v-2.25h14.9V16.54z"/>
			<path class="st1" d="M190.78,14.29h2.56v13.94l10.69-13.94h2.38v18.08h-2.53V18.45l-10.72,13.92h-2.38V14.29z"/>
			<path class="st1" d="M218.33,24.41h-3.77v7.95h-2.53V14.29h2.53v7.85h3.82l5.68-7.85h2.76l-6.46,8.75l6.76,9.32h-2.94
				L218.33,24.41z"/>
			<path class="st1" d="M251.48,27.92h-3.43v4.44h-2.5v-4.44H235.5v-1.81l9.24-11.83h2.79l-8.86,11.41h6.95v-3.92h2.43v3.92h3.43
				V27.92z"/>
			<path class="st1" d="M254.01,32.02c-0.34-0.34-0.52-0.76-0.52-1.28c0-0.5,0.17-0.92,0.52-1.25c0.34-0.34,0.76-0.5,1.24-0.5
				c0.48,0,0.89,0.16,1.21,0.49c0.33,0.33,0.49,0.75,0.49,1.26s-0.17,0.94-0.5,1.28c-0.34,0.34-0.74,0.5-1.2,0.5
				C254.77,32.52,254.36,32.35,254.01,32.02z"/>
			<path class="st1" d="M262.68,31.47c-1.11-0.73-1.98-1.79-2.62-3.19s-0.96-3.05-0.96-4.96c0-1.91,0.32-3.56,0.96-4.96
				s1.51-2.46,2.62-3.19c1.11-0.73,2.38-1.1,3.81-1.1c1.41,0,2.67,0.37,3.78,1.1c1.11,0.73,1.98,1.79,2.62,3.19s0.96,3.05,0.96,4.96
				c0,1.91-0.32,3.56-0.96,4.96s-1.51,2.46-2.62,3.19c-1.11,0.73-2.37,1.1-3.78,1.1C265.06,32.57,263.79,32.21,262.68,31.47z
				 M269.96,28.49c0.87-1.19,1.3-2.91,1.3-5.16s-0.44-3.98-1.3-5.17c-0.87-1.19-2.03-1.78-3.47-1.78c-1.46,0-2.63,0.59-3.5,1.78
				c-0.87,1.19-1.3,2.91-1.3,5.17s0.43,3.98,1.3,5.16s2.04,1.78,3.5,1.78C267.93,30.27,269.09,29.68,269.96,28.49z"/>
		</g>
	</g>
	<g>
		<rect x="36.8" y="23.41" class="st1" width="9.75" height="19.28"/>
		<rect x="18.4" y="12.39" class="st1" width="9.75" height="30.29"/>
		<rect y="0" class="st1" width="9.75" height="42.69"/>
		<rect y="42.25" class="st1" width="55.94" height="0.87"/>
	</g>
</g>
<g id="Слой_2_1_" class="st2">
</g>
</svg>
