<?xml version="1.0" encoding="utf-8"?>
<!-- Generator: Adobe Illustrator 24.0.1, SVG Export Plug-In . SVG Version: 6.00 Build 0)  -->
<svg version="1.1" id="Слой_1" xmlns="http://www.w3.org/2000/svg" xmlns:xlink="http://www.w3.org/1999/xlink" x="0px" y="0px"
	 viewBox="0 0 450.28 195.12" style="enable-background:new 0 0 450.28 195.12;" xml:space="preserve">
<style type="text/css">
	.st0{fill:url(#SVGID_1_);}
	.st1{fill:url(#SVGID_2_);}
	.st2{fill:url(#SVGID_3_);}
	.st3{fill:url(#SVGID_4_);}
	.st4{fill:url(#SVGID_5_);}
	.st5{fill:url(#SVGID_6_);}
	.st6{fill:url(#SVGID_7_);}
	.st7{fill:url(#SVGID_8_);}
	.st8{fill:url(#SVGID_9_);}
	.st9{fill:url(#SVGID_10_);}
	.st10{display:none;}
</style>
<g>
	<g>
		<g>
			
				<linearGradient id="SVGID_1_" gradientUnits="userSpaceOnUse" x1="1560.5753" y1="101.7206" x2="1836.7153" y2="101.7206" gradientTransform="matrix(-1 0 0 -1 2010.8553 195.2756)">
				<stop  offset="0" style="stop-color:#330652"/>
				<stop  offset="1" style="stop-color:#8D10C3"/>
			</linearGradient>
			<rect x="174.14" y="92.06" class="st0" width="276.14" height="2.99"/>
		</g>
		<g>
			
				<linearGradient id="SVGID_2_" gradientUnits="userSpaceOnUse" x1="1832.1753" y1="101.7156" x2="1847.7754" y2="101.7156" gradientTransform="matrix(-1 0 0 -1 2010.8553 195.2756)">
				<stop  offset="0" style="stop-color:#330652"/>
				<stop  offset="1" style="stop-color:#8D10C3"/>
			</linearGradient>
			<circle class="st1" cx="170.88" cy="93.56" r="7.8"/>
		</g>
	</g>
	<g>
		<g>
			
				<linearGradient id="SVGID_3_" gradientUnits="userSpaceOnUse" x1="1560.5753" y1="140.1206" x2="1998.9154" y2="140.1206" gradientTransform="matrix(-1 0 0 -1 2010.8553 195.2756)">
				<stop  offset="0" style="stop-color:#330652"/>
				<stop  offset="1" style="stop-color:#8D10C3"/>
			</linearGradient>
			<polygon class="st2" points="11.94,75.98 224.6,75.98 273.66,37.33 450.28,37.33 450.28,34.33 272.84,34.33 223.79,72.99 
				11.94,72.99 			"/>
		</g>
		<g>
			
				<linearGradient id="SVGID_4_" gradientUnits="userSpaceOnUse" x1="1995.2418" y1="120.7956" x2="2010.8502" y2="120.7956" gradientTransform="matrix(-1 0 0 -1 2010.8553 195.2756)">
				<stop  offset="0" style="stop-color:#330652"/>
				<stop  offset="1" style="stop-color:#8D10C3"/>
			</linearGradient>
			<path class="st3" d="M10.74,67.25c-3.99-1.62-8.54,0.3-10.16,4.3c-1.62,3.99,0.3,8.54,4.3,10.16c3.99,1.62,8.54-0.3,10.16-4.3
				C16.66,73.42,14.73,68.87,10.74,67.25z"/>
		</g>
	</g>
	<g>
		<g>
			
				<linearGradient id="SVGID_5_" gradientUnits="userSpaceOnUse" x1="1560.5753" y1="180.2206" x2="1801.1653" y2="180.2206" gradientTransform="matrix(-1 0 0 -1 2010.8553 195.2756)">
				<stop  offset="0" style="stop-color:#330652"/>
				<stop  offset="1" style="stop-color:#8D10C3"/>
			</linearGradient>
			<polygon class="st4" points="212.44,30.11 238.19,2.99 450.28,2.99 450.28,0 236.5,0 209.69,28.23 			"/>
		</g>
		<g>
			
				<linearGradient id="SVGID_6_" gradientUnits="userSpaceOnUse" x1="1793.1521" y1="160.0494" x2="1811.7587" y2="160.0494" gradientTransform="matrix(-1 0 0 -1 2010.8553 195.2756)">
				<stop  offset="0" style="stop-color:#330652"/>
				<stop  offset="1" style="stop-color:#8D10C3"/>
			</linearGradient>
			<path class="st5" d="M204.9,43.84c-4.75-1.93-7.05-7.36-5.12-12.11c0.93-2.3,2.71-4.1,5-5.07s4.82-0.98,7.12-0.05l0,0
				c4.75,1.93,7.05,7.36,5.12,12.11c-0.93,2.3-2.71,4.1-5,5.07c-1.17,0.49-2.39,0.74-3.62,0.74
				C207.22,44.53,206.03,44.3,204.9,43.84z M210.77,29.38c-1.56-0.63-3.28-0.62-4.83,0.04c-1.55,0.66-2.75,1.88-3.39,3.44
				c-1.31,3.22,0.25,6.91,3.47,8.21c1.56,0.63,3.28,0.62,4.83-0.04s2.76-1.88,3.39-3.44C215.55,34.37,213.99,30.69,210.77,29.38
				L210.77,29.38z"/>
		</g>
	</g>
	<g>
		<g>
			
				<linearGradient id="SVGID_7_" gradientUnits="userSpaceOnUse" x1="1560.5753" y1="69.3156" x2="1902.7253" y2="69.3156" gradientTransform="matrix(-1 0 0 -1 2010.8553 195.2756)">
				<stop  offset="0" style="stop-color:#330652"/>
				<stop  offset="1" style="stop-color:#8D10C3"/>
			</linearGradient>
			<polygon class="st6" points="250.36,141.41 450.28,141.41 450.28,138.41 251.1,138.41 214.41,110.51 108.13,110.51 108.13,113.5 
				213.66,113.5 			"/>
		</g>
		<g>
			
				<linearGradient id="SVGID_8_" gradientUnits="userSpaceOnUse" x1="1901.222" y1="83.2613" x2="1919.8286" y2="83.2613" gradientTransform="matrix(-1 0 0 -1 2010.8553 195.2756)">
				<stop  offset="0" style="stop-color:#330652"/>
				<stop  offset="1" style="stop-color:#8D10C3"/>
			</linearGradient>
			<path class="st7" d="M96.83,120.63L96.83,120.63c-4.75-1.93-7.05-7.36-5.12-12.11c0.93-2.3,2.71-4.1,5-5.07s4.82-0.99,7.12-0.05
				c4.75,1.93,7.05,7.36,5.12,12.11c-0.93,2.3-2.71,4.1-5,5.07c-1.17,0.49-2.39,0.74-3.62,0.74
				C99.15,121.31,97.96,121.08,96.83,120.63z M97.87,106.2c-1.55,0.66-2.75,1.88-3.39,3.44c-1.31,3.22,0.25,6.91,3.47,8.21
				c1.56,0.64,3.28,0.62,4.83-0.04s2.76-1.88,3.39-3.44c1.31-3.22-0.25-6.91-3.47-8.21c-0.77-0.31-1.57-0.47-2.37-0.47
				C99.5,105.7,98.66,105.87,97.87,106.2z"/>
		</g>
	</g>
	<g>
		<g>
			
				<linearGradient id="SVGID_9_" gradientUnits="userSpaceOnUse" x1="1560.5753" y1="15.2106" x2="1795.8654" y2="15.2106" gradientTransform="matrix(-1 0 0 -1 2010.8553 195.2756)">
				<stop  offset="0" style="stop-color:#330652"/>
				<stop  offset="1" style="stop-color:#8D10C3"/>
			</linearGradient>
			<polygon class="st8" points="450.28,195.12 241.21,195.12 214.99,166.89 217.67,165.01 242.86,192.12 450.28,192.12 			"/>
		</g>
		<g>
			
				<linearGradient id="SVGID_10_" gradientUnits="userSpaceOnUse" x1="1788.8014" y1="34.7126" x2="1807.4093" y2="34.7126" gradientTransform="matrix(-1 0 0 -1 2010.8553 195.2756)">
				<stop  offset="0" style="stop-color:#330652"/>
				<stop  offset="1" style="stop-color:#8D10C3"/>
			</linearGradient>
			<path class="st9" d="M212.75,169.87c-1.23,0-2.46-0.25-3.62-0.74c-2.29-0.97-4.06-2.77-5-5.07c-0.93-2.3-0.91-4.83,0.05-7.12
				c0.97-2.29,2.77-4.06,5.07-5c2.3-0.93,4.83-0.91,7.12,0.05c2.29,0.97,4.06,2.77,5,5.07c0.93,2.3,0.91,4.83-0.05,7.12
				c-0.97,2.29-2.77,4.06-5.07,5l0,0C215.12,169.64,213.93,169.87,212.75,169.87z M212.75,154.26c-0.8,0-1.6,0.16-2.37,0.47
				c-1.56,0.63-2.78,1.84-3.44,3.39s-0.67,3.27-0.04,4.83s1.84,2.78,3.39,3.44c1.55,0.65,3.27,0.67,4.83,0.04l0,0
				c1.56-0.63,2.78-1.84,3.44-3.39s0.67-3.27,0.04-4.83s-1.84-2.78-3.39-3.44C214.42,154.42,213.58,154.26,212.75,154.26z"/>
		</g>
	</g>
</g>
<g id="Слой_2_1_" class="st10">
</g>
</svg>
